Bodoni-11-Medium.ufo
<glyph name="percent" format="2">
  <advance width="4136"/>
  <unicode hex="0025"/>
  <outline>
    <contour>
      <point x="2816" y="860" type="curve" smooth="yes"/>
      <point x="2816" y="391"/>
      <point x="2881" y="41"/>
      <point x="3133" y="41" type="curve" smooth="yes"/>
      <point x="3385" y="41"/>
      <point x="3451" y="391"/>
      <point x="3451" y="860" type="curve" smooth="yes"/>
      <point x="3451" y="1329"/>
      <point x="3385" y="1679"/>
      <point x="3133" y="1679" type="curve" smooth="yes"/>
      <point x="2881" y="1679"/>
      <point x="2816" y="1329"/>
    </contour>
    <contour>
      <point x="2273" y="860" type="curve" smooth="yes"/>
      <point x="2273" y="1446"/>
      <point x="2670" y="1761"/>
      <point x="3133" y="1761" type="curve" smooth="yes"/>
      <point x="3596" y="1761"/>
      <point x="3994" y="1446"/>
      <point x="3994" y="860" type="curve" smooth="yes"/>
      <point x="3994" y="274"/>
      <point x="3514" y="-41"/>
      <point x="3133" y="-41" type="curve" smooth="yes"/>
      <point x="2670" y="-41"/>
      <point x="2273" y="274"/>
    </contour>
    <contour>
      <point x="3052" y="3072" type="line"/>
      <point x="3154" y="3072" type="line"/>
      <point x="1086" y="0" type="line"/>
      <point x="984" y="0" type="line"/>
    </contour>
    <contour>
      <point x="686" y="2212" type="curve" smooth="yes"/>
      <point x="686" y="1743"/>
      <point x="752" y="1393"/>
      <point x="1004" y="1393" type="curve" smooth="yes"/>
      <point x="1256" y="1393"/>
      <point x="1320" y="1743"/>
      <point x="1320" y="2212" type="curve" smooth="yes"/>
      <point x="1320" y="2681"/>
      <point x="1256" y="3031"/>
      <point x="1004" y="3031" type="curve" smooth="yes"/>
      <point x="752" y="3031"/>
      <point x="686" y="2681"/>
    </contour>
    <contour>
      <point x="143" y="2212" type="curve" smooth="yes"/>
      <point x="143" y="2798"/>
      <point x="541" y="3113"/>
      <point x="1004" y="3113" type="curve" smooth="yes"/>
      <point x="1467" y="3113"/>
      <point x="1864" y="2798"/>
      <point x="1864" y="2212" type="curve" smooth="yes"/>
      <point x="1864" y="1626"/>
      <point x="1385" y="1311"/>
      <point x="1004" y="1311" type="curve" smooth="yes"/>
      <point x="541" y="1311"/>
      <point x="143" y="1626"/>
    </contour>
  </outline>
</glyph>
<glyph name="ampersand" format="2">
  <advance width="3410"/>
  <unicode hex="0026"/>
  <outline>
    <contour>
      <point x="1554" y="1794" type="curve"/>
      <point x="1518" y="1860" type="line"/>
      <point x="1674" y="1960"/>
      <point x="1878" y="2154"/>
      <point x="1878" y="2596" type="curve" smooth="yes"/>
      <point x="1878" y="2810"/>
      <point x="1815" y="3052"/>
      <point x="1547" y="3052" type="curve" smooth="yes"/>
      <point x="1277" y="3052"/>
      <point x="1182" y="2858"/>
      <point x="1182" y="2652" type="curve" smooth="yes"/>
      <point x="1182" y="2498"/>
      <point x="1294" y="2270"/>
      <point x="1470" y="2008" type="curve" smooth="yes"/>
      <point x="2759" y="82" type="line"/>
      <point x="3283" y="82" type="line"/>
      <point x="3283" y="0" type="line"/>
      <point x="2202" y="0" type="line"/>
      <point x="846" y="2008" type="line" smooth="yes"/>
      <point x="740" y="2164"/>
      <point x="658" y="2366"/>
      <point x="658" y="2510" type="curve" smooth="yes"/>
      <point x="658" y="2878"/>
      <point x="1026" y="3112"/>
      <point x="1552" y="3112" type="curve" smooth="yes"/>
      <point x="2042" y="3112"/>
      <point x="2383" y="2908"/>
      <point x="2383" y="2590" type="curve" smooth="yes"/>
      <point x="2383" y="2178"/>
      <point x="2002" y="1990"/>
    </contour>
    <contour>
      <point x="1127" y="1667" type="curve"/>
      <point x="1152" y="1602" type="line"/>
      <point x="879" y="1454"/>
      <point x="714" y="1279"/>
      <point x="714" y="888" type="curve" smooth="yes"/>
      <point x="714" y="482"/>
      <point x="971" y="140"/>
      <point x="1389" y="140" type="curve" smooth="yes"/>
      <point x="2111" y="140"/>
      <point x="2762" y="994"/>
      <point x="2850" y="1844" type="curve"/>
      <point x="2932" y="1844" type="line"/>
      <point x="2816" y="938"/>
      <point x="2158" y="-40"/>
      <point x="1132" y="-40" type="curve" smooth="yes"/>
      <point x="536" y="-40"/>
      <point x="162" y="253"/>
      <point x="162" y="714" type="curve" smooth="yes"/>
      <point x="162" y="1333"/>
      <point x="961" y="1588"/>
    </contour>
    <contour>
      <point x="2310" y="1884" type="line"/>
      <point x="3292" y="1884" type="line"/>
      <point x="3292" y="1802" type="line"/>
      <point x="2310" y="1802" type="line"/>
    </contour>
  </outline>
</glyph>
<glyph name="parenleft" format="2">
  <advance width="1502"/>
  <unicode hex="0028"/>
  <outline>
    <contour>
      <point x="1462" y="-627" type="curve"/>
      <point x="1426" y="-696" type="line"/>
      <point x="758" y="-409"/>
      <point x="266" y="377"/>
      <point x="266" y="1331" type="curve" smooth="yes"/>
      <point x="266" y="2285"/>
      <point x="758" y="2990"/>
      <point x="1426" y="3277" type="curve"/>
      <point x="1462" y="3207" type="line"/>
      <point x="1005" y="2910"/>
      <point x="778" y="2117"/>
      <point x="778" y="1331" type="curve" smooth="yes"/>
      <point x="778" y="545"/>
      <point x="1005" y="-330"/>
    </contour>
  </outline>
</glyph>
<glyph name="period" format="2">
  <advance width="941"/>
  <unicode hex="002E"/>
  <outline>
    <contour>
      <point x="164" y="266" type="curve" smooth="yes"/>
      <point x="164" y="434"/>
      <point x="303" y="574"/>
      <point x="471" y="574" type="curve" smooth="yes"/>
      <point x="639" y="574"/>
      <point x="778" y="434"/>
      <point x="778" y="266" type="curve" smooth="yes"/>
      <point x="778" y="98"/>
      <point x="639" y="-41"/>
      <point x="471" y="-41" type="curve" smooth="yes"/>
      <point x="303" y="-41"/>
      <point x="164" y="98"/>
    </contour>
  </outline>
</glyph>
<glyph name="zero" format="2">
  <advance width="2621"/>
  <unicode hex="0030"/>
  <outline>
    <contour>
      <point x="1311" y="-41" type="curve" smooth="yes"/>
      <point x="623" y="-41"/>
      <point x="164" y="654"/>
      <point x="164" y="1536" type="curve" smooth="yes"/>
      <point x="164" y="2418"/>
      <point x="663" y="3113"/>
      <point x="1311" y="3113" type="curve" smooth="yes"/>
      <point x="1959" y="3113"/>
      <point x="2458" y="2418"/>
      <point x="2458" y="1536" type="curve" smooth="yes"/>
      <point x="2458" y="654"/>
      <point x="1999" y="-41"/>
    </contour>
    <contour>
      <point x="1311" y="3043" type="curve" smooth="yes"/>
      <point x="865" y="3043"/>
      <point x="758" y="2332"/>
      <point x="758" y="1536" type="curve" smooth="yes"/>
      <point x="758" y="740"/>
      <point x="823" y="29"/>
      <point x="1311" y="29" type="curve" smooth="yes"/>
      <point x="1799" y="29"/>
      <point x="1864" y="740"/>
      <point x="1864" y="1536" type="curve" smooth="yes"/>
      <point x="1864" y="2332"/>
      <point x="1768" y="3043"/>
    </contour>
  </outline>
</glyph>
<glyph name="three" format="2">
  <advance width="2236"/>
  <unicode hex="0033"/>
  <outline>
    <contour>
      <point x="2072" y="830" type="curve" smooth="yes"/>
      <point x="2072" y="288"/>
      <point x="1595" y="-41"/>
      <point x="997" y="-41" type="curve" smooth="yes"/>
      <point x="384" y="-41"/>
      <point x="102" y="292"/>
      <point x="102" y="608" type="curve" smooth="yes"/>
      <point x="102" y="807"/>
      <point x="230" y="930"/>
      <point x="404" y="930" type="curve" smooth="yes"/>
      <point x="558" y="930"/>
      <point x="676" y="824"/>
      <point x="676" y="646" type="curve" smooth="yes"/>
      <point x="676" y="484"/>
      <point x="537" y="369"/>
      <point x="387" y="369" type="curve" smooth="yes"/>
      <point x="321" y="369"/>
      <point x="282" y="392"/>
      <point x="266" y="396" type="curve"/>
      <point x="317" y="260"/>
      <point x="527" y="76"/>
      <point x="895" y="76" type="curve" smooth="yes"/>
      <point x="1361" y="76"/>
      <point x="1536" y="414"/>
      <point x="1536" y="830" type="curve" smooth="yes"/>
      <point x="1536" y="1164"/>
      <point x="1421" y="1622"/>
      <point x="780" y="1622" type="curve"/>
      <point x="780" y="1679" type="line"/>
      <point x="1788" y="1679"/>
      <point x="2072" y="1292"/>
    </contour>
    <contour>
      <point x="780" y="1642" type="curve"/>
      <point x="780" y="1700" type="line"/>
      <point x="1380" y="1700"/>
      <point x="1414" y="2149"/>
      <point x="1414" y="2421" type="curve" smooth="yes"/>
      <point x="1414" y="2735"/>
      <point x="1250" y="2997"/>
      <point x="946" y="2997" type="curve" smooth="yes"/>
      <point x="676" y="2997"/>
      <point x="502" y="2859"/>
      <point x="430" y="2757" type="curve"/>
      <point x="447" y="2761"/>
      <point x="475" y="2771"/>
      <point x="520" y="2771" type="curve" smooth="yes"/>
      <point x="660" y="2771"/>
      <point x="794" y="2668"/>
      <point x="794" y="2500" type="curve" smooth="yes"/>
      <point x="794" y="2310"/>
      <point x="643" y="2214"/>
      <point x="510" y="2214" type="curve" smooth="yes"/>
      <point x="356" y="2214"/>
      <point x="225" y="2315"/>
      <point x="225" y="2509" type="curve" smooth="yes"/>
      <point x="225" y="2835"/>
      <point x="610" y="3109"/>
      <point x="1028" y="3109" type="curve" smooth="yes"/>
      <point x="1524" y="3109"/>
      <point x="1950" y="2861"/>
      <point x="1950" y="2410" type="curve" smooth="yes"/>
      <point x="1950" y="2000"/>
      <point x="1746" y="1642"/>
    </contour>
  </outline>
</glyph>
<glyph name="seven" format="2">
  <advance width="2139"/>
  <unicode hex="0037"/>
  <outline>
    <contour>
      <point x="647" y="342" type="curve" smooth="yes"/>
      <point x="647" y="666"/>
      <point x="950" y="1075"/>
      <point x="1204" y="1518" type="curve" smooth="yes"/>
      <point x="1357" y="1790"/>
      <point x="1564" y="2204"/>
      <point x="1742" y="2560" type="curve"/>
      <point x="246" y="2560" type="line"/>
      <point x="246" y="2253" type="line"/>
      <point x="164" y="2253" type="line"/>
      <point x="164" y="3072" type="line"/>
      <point x="2100" y="3072" type="line"/>
      <point x="2100" y="3072"/>
      <point x="1603" y="2082"/>
      <point x="1305" y="1528" type="curve" smooth="yes"/>
      <point x="1110" y="1162"/>
      <point x="1080" y="1038"/>
      <point x="1080" y="868" type="curve" smooth="yes"/>
      <point x="1080" y="590"/>
      <point x="1302" y="528"/>
      <point x="1302" y="289" type="curve" smooth="yes"/>
      <point x="1302" y="107"/>
      <point x="1189" y="-41"/>
      <point x="978" y="-41" type="curve" smooth="yes"/>
      <point x="787" y="-41"/>
      <point x="647" y="48"/>
    </contour>
  </outline>
</glyph>
<glyph name="eight" format="2">
  <advance width="2354"/>
  <unicode hex="0038"/>
  <outline>
    <contour>
      <point x="778" y="2294" type="curve" smooth="yes"/>
      <point x="778" y="1899"/>
      <point x="873" y="1618"/>
      <point x="1177" y="1618" type="curve" smooth="yes"/>
      <point x="1481" y="1618"/>
      <point x="1576" y="1899"/>
      <point x="1576" y="2294" type="curve" smooth="yes"/>
      <point x="1576" y="2679"/>
      <point x="1481" y="3031"/>
      <point x="1177" y="3031" type="curve" smooth="yes"/>
      <point x="873" y="3031"/>
      <point x="778" y="2679"/>
    </contour>
    <contour>
      <point x="246" y="2294" type="curve" smooth="yes"/>
      <point x="246" y="2745"/>
      <point x="569" y="3113"/>
      <point x="1177" y="3113" type="curve" smooth="yes"/>
      <point x="1785" y="3113"/>
      <point x="2110" y="2745"/>
      <point x="2110" y="2294" type="curve" smooth="yes"/>
      <point x="2110" y="1843"/>
      <point x="1785" y="1556"/>
      <point x="1177" y="1556" type="curve" smooth="yes"/>
      <point x="569" y="1556"/>
      <point x="246" y="1843"/>
    </contour>
    <contour>
      <point x="696" y="778" type="curve" smooth="yes"/>
      <point x="696" y="372"/>
      <point x="822" y="41"/>
      <point x="1177" y="41" type="curve" smooth="yes"/>
      <point x="1532" y="41"/>
      <point x="1658" y="372"/>
      <point x="1658" y="778" type="curve" smooth="yes"/>
      <point x="1658" y="1184"/>
      <point x="1532" y="1536"/>
      <point x="1177" y="1536" type="curve" smooth="yes"/>
      <point x="822" y="1536"/>
      <point x="696" y="1184"/>
    </contour>
    <contour>
      <point x="164" y="778" type="curve" smooth="yes"/>
      <point x="164" y="1270"/>
      <point x="487" y="1597"/>
      <point x="1177" y="1597" type="curve" smooth="yes"/>
      <point x="1867" y="1597"/>
      <point x="2192" y="1270"/>
      <point x="2192" y="778" type="curve" smooth="yes"/>
      <point x="2192" y="286"/>
      <point x="1867" y="-41"/>
      <point x="1177" y="-41" type="curve" smooth="yes"/>
      <point x="487" y="-41"/>
      <point x="164" y="286"/>
    </contour>
  </outline>
</glyph>
<glyph name="question" format="2">
  <advance width="2323"/>
  <unicode hex="003F"/>
  <outline>
    <contour>
      <point x="982" y="1450" type="line"/>
      <point x="1389" y="1577"/>
      <point x="1583" y="1913"/>
      <point x="1583" y="2294" type="curve" smooth="yes"/>
      <point x="1583" y="2679"/>
      <point x="1495" y="3016"/>
      <point x="1049" y="3016" type="curve" smooth="yes"/>
      <point x="725" y="3016"/>
      <point x="456" y="2772"/>
      <point x="404" y="2616" type="curve"/>
      <point x="420" y="2620"/>
      <point x="460" y="2642"/>
      <point x="526" y="2642" type="curve" smooth="yes"/>
      <point x="676" y="2642"/>
      <point x="816" y="2544"/>
      <point x="816" y="2376" type="curve" smooth="yes"/>
      <point x="816" y="2186"/>
      <point x="673" y="2096"/>
      <point x="530" y="2096" type="curve" smooth="yes"/>
      <point x="366" y="2096"/>
      <point x="246" y="2206"/>
      <point x="246" y="2400" type="curve" smooth="yes"/>
      <point x="246" y="2746"/>
      <point x="631" y="3113"/>
      <point x="1131" y="3113" type="curve" smooth="yes"/>
      <point x="1729" y="3113"/>
      <point x="2120" y="2786"/>
      <point x="2120" y="2294" type="curve" smooth="yes"/>
      <point x="2120" y="1823"/>
      <point x="1693" y="1433"/>
      <point x="1064" y="1396" type="curve"/>
      <point x="1064" y="928" type="line"/>
      <point x="982" y="928" type="line"/>
    </contour>
    <component base="period" xOffset="590"/>
  </outline>
</glyph>
<glyph name="C" format="2">
  <advance width="2810"/>
  <unicode hex="0043"/>
  <outline>
    <contour>
      <point x="2544" y="3072" type="line"/>
      <point x="2606" y="3072" type="line"/>
      <point x="2606" y="2201" type="line"/>
      <point x="2507" y="2426"/>
      <point x="2412" y="2644"/>
      <point x="2268" y="2836" type="curve"/>
    </contour>
    <contour>
      <point x="2606" y="2201" type="curve"/>
      <point x="2524" y="2201" type="line"/>
      <point x="2412" y="2681"/>
      <point x="2080" y="3006"/>
      <point x="1654" y="3006" type="curve" smooth="yes"/>
      <point x="992" y="3006"/>
      <point x="772" y="2281"/>
      <point x="772" y="1536" type="curve" smooth="yes"/>
      <point x="772" y="791"/>
      <point x="992" y="66"/>
      <point x="1654" y="66" type="curve" smooth="yes"/>
      <point x="2172" y="66"/>
      <point x="2454" y="433"/>
      <point x="2566" y="871" type="curve"/>
      <point x="2647" y="871" type="line"/>
      <point x="2585" y="347"/>
      <point x="2198" y="-41"/>
      <point x="1612" y="-41" type="curve" smooth="yes"/>
      <point x="740" y="-41"/>
      <point x="179" y="623"/>
      <point x="179" y="1536" type="curve" smooth="yes"/>
      <point x="179" y="2449"/>
      <point x="740" y="3113"/>
      <point x="1612" y="3113" type="curve" smooth="yes"/>
      <point x="2136" y="3113"/>
      <point x="2534" y="2725"/>
    </contour>
    <contour>
      <point x="2647" y="871" type="curve"/>
      <point x="2647" y="0" type="line"/>
      <point x="2586" y="0" type="line"/>
      <point x="2309" y="266" type="line"/>
      <point x="2480" y="489"/>
      <point x="2571" y="644"/>
    </contour>
  </outline>
</glyph>
<glyph name="K" format="2">
  <advance width="2964"/>
  <unicode hex="004B"/>
  <outline>
    <contour>
      <point x="77" y="82" type="line"/>
      <point x="1346" y="82" type="line"/>
      <point x="1346" y="0" type="line"/>
      <point x="77" y="0" type="line"/>
    </contour>
    <contour>
      <point x="77" y="3072" type="line"/>
      <point x="1366" y="3072" type="line"/>
      <point x="1366" y="2990" type="line"/>
      <point x="77" y="2990" type="line"/>
    </contour>
    <contour>
      <point x="446" y="3072" type="line"/>
      <point x="958" y="3072" type="line"/>
      <point x="958" y="0" type="line"/>
      <point x="446" y="0" type="line"/>
    </contour>
    <contour>
      <point x="659" y="889" type="line"/>
      <point x="536" y="889" type="line"/>
      <point x="2272" y="3064" type="line"/>
      <point x="2396" y="3064" type="line"/>
    </contour>
    <contour>
      <point x="1572" y="82" type="line"/>
      <point x="2944" y="82" type="line"/>
      <point x="2944" y="0" type="line"/>
      <point x="1572" y="0" type="line"/>
    </contour>
    <contour>
      <point x="2759" y="2990" type="line"/>
      <point x="1776" y="2990" type="line"/>
      <point x="1776" y="3072" type="line"/>
      <point x="2759" y="3072" type="line"/>
    </contour>
    <contour>
      <point x="2624" y="0" type="line"/>
      <point x="2010" y="0" type="line"/>
      <point x="1128" y="1566" type="line"/>
      <point x="1472" y="1947" type="line"/>
    </contour>
  </outline>
</glyph>
<glyph name="P" format="2">
  <advance width="2626"/>
  <unicode hex="0050"/>
  <outline>
    <contour>
      <point x="446" y="3072" type="line"/>
      <point x="958" y="3072" type="line"/>
      <point x="958" y="0" type="line"/>
      <point x="446" y="0" type="line"/>
    </contour>
    <contour>
      <point x="77" y="82" type="line"/>
      <point x="1326" y="82" type="line"/>
      <point x="1326" y="0" type="line"/>
      <point x="77" y="0" type="line"/>
    </contour>
    <contour>
      <point x="1387" y="1352" type="curve" smooth="yes"/>
      <point x="824" y="1352" type="line"/>
      <point x="824" y="1434" type="line"/>
      <point x="1346" y="1434" type="line" smooth="yes"/>
      <point x="1718" y="1434"/>
      <point x="1910" y="1847"/>
      <point x="1910" y="2212" type="curve" smooth="yes"/>
      <point x="1910" y="2577"/>
      <point x="1718" y="2990"/>
      <point x="1346" y="2990" type="curve" smooth="yes"/>
      <point x="77" y="2990" type="line"/>
      <point x="77" y="3072" type="line"/>
      <point x="1387" y="3072" type="line" smooth="yes"/>
      <point x="2149" y="3072"/>
      <point x="2483" y="2744"/>
      <point x="2483" y="2212" type="curve" smooth="yes"/>
      <point x="2483" y="1680"/>
      <point x="2149" y="1352"/>
    </contour>
  </outline>
</glyph>
<glyph name="R" format="2">
  <advance width="2943"/>
  <unicode hex="0052"/>
  <outline>
    <contour>
      <point x="1470" y="1565" type="curve" smooth="yes"/>
      <point x="814" y="1565" type="line"/>
      <point x="814" y="1618" type="line"/>
      <point x="1418" y="1618" type="line" smooth="yes"/>
      <point x="1811" y="1618"/>
      <point x="2022" y="1848"/>
      <point x="2022" y="2314" type="curve" smooth="yes"/>
      <point x="2022" y="2780"/>
      <point x="1811" y="2990"/>
      <point x="1418" y="2990" type="curve" smooth="yes"/>
      <point x="77" y="2990" type="line"/>
      <point x="77" y="3072" type="line"/>
      <point x="1470" y="3072" type="line" smooth="yes"/>
      <point x="2119" y="3072"/>
      <point x="2555" y="2846"/>
      <point x="2555" y="2314" type="curve" smooth="yes"/>
      <point x="2555" y="1782"/>
      <point x="2160" y="1565"/>
    </contour>
    <contour>
      <point x="77" y="82" type="line"/>
      <point x="1449" y="82" type="line"/>
      <point x="1449" y="0" type="line"/>
      <point x="77" y="0" type="line"/>
    </contour>
    <contour>
      <point x="506" y="3072" type="line"/>
      <point x="1019" y="3072" type="line"/>
      <point x="1019" y="0" type="line"/>
      <point x="506" y="0" type="line"/>
    </contour>
    <contour>
      <point x="2903" y="46" type="line"/>
      <point x="2837" y="9"/>
      <point x="2660" y="-25"/>
      <point x="2472" y="-25" type="curve" smooth="yes"/>
      <point x="1436" y="-25"/>
      <point x="2416" y="1536"/>
      <point x="1408" y="1536" type="curve" smooth="yes"/>
      <point x="814" y="1536" type="line"/>
      <point x="814" y="1577" type="line"/>
      <point x="1612" y="1577" type="line" smooth="yes"/>
      <point x="2986" y="1577"/>
      <point x="2174" y="83"/>
      <point x="2678" y="83" type="curve" smooth="yes"/>
      <point x="2764" y="83"/>
      <point x="2821" y="99"/>
      <point x="2878" y="124" type="curve"/>
    </contour>
  </outline>
</glyph>
<glyph name="T" format="2">
  <advance width="2677"/>
  <unicode hex="0054"/>
  <outline>
    <contour>
      <point x="640" y="82" type="line"/>
      <point x="2054" y="82" type="line"/>
      <point x="2054" y="0" type="line"/>
      <point x="640" y="0" type="line"/>
    </contour>
    <contour>
      <point x="1090" y="3031" type="line"/>
      <point x="1602" y="3031" type="line"/>
      <point x="1602" y="0" type="line"/>
      <point x="1090" y="0" type="line"/>
    </contour>
    <contour>
      <point x="1940" y="2990" type="curve" smooth="yes"/>
      <point x="752" y="2990" type="line" smooth="yes"/>
      <point x="294" y="2990"/>
      <point x="190" y="2640"/>
      <point x="159" y="2120" type="curve"/>
      <point x="77" y="2120" type="line"/>
      <point x="77" y="3072" type="line"/>
      <point x="2616" y="3072" type="line"/>
      <point x="2616" y="2120" type="line"/>
      <point x="2534" y="2120" type="line"/>
      <point x="2503" y="2640"/>
      <point x="2398" y="2990"/>
    </contour>
  </outline>
</glyph>
<glyph name="grave" format="2">
  <advance width="1647"/>
  <unicode hex="0060"/>
  <outline>
    <contour>
      <point x="430" y="2908" type="line" smooth="yes"/>
      <point x="321" y="2902"/>
      <point x="225" y="2983"/>
      <point x="225" y="3092" type="curve" smooth="yes"/>
      <point x="225" y="3201"/>
      <point x="333" y="3313"/>
      <point x="471" y="3269" type="curve" smooth="yes"/>
      <point x="1422" y="3000" type="line"/>
      <point x="1403" y="2918" type="line"/>
    </contour>
  </outline>
</glyph>
<glyph name="a" format="2">
  <advance width="2286"/>
  <unicode hex="0061"/>
  <outline>
    <contour>
      <point x="2267" y="258" type="line"/>
      <point x="2173" y="53"/>
      <point x="1981" y="-41"/>
      <point x="1774" y="-41" type="curve" smooth="yes"/>
      <point x="1550" y="-41"/>
      <point x="1346" y="58"/>
      <point x="1346" y="310" type="curve" smooth="yes"/>
      <point x="1346" y="1249" type="line" smooth="yes"/>
      <point x="1346" y="1543"/>
      <point x="1290" y="1821"/>
      <point x="972" y="1821" type="curve" smooth="yes"/>
      <point x="812" y="1821"/>
      <point x="699" y="1776"/>
      <point x="643" y="1732" type="curve"/>
      <point x="737" y="1717"/>
      <point x="874" y="1658"/>
      <point x="874" y="1496" type="curve" smooth="yes"/>
      <point x="874" y="1322"/>
      <point x="715" y="1233"/>
      <point x="582" y="1233" type="curve" smooth="yes"/>
      <point x="428" y="1233"/>
      <point x="318" y="1330"/>
      <point x="318" y="1488" type="curve" smooth="yes"/>
      <point x="318" y="1747"/>
      <point x="674" y="1917"/>
      <point x="1068" y="1917" type="curve" smooth="yes"/>
      <point x="1713" y="1917"/>
      <point x="1816" y="1601"/>
      <point x="1816" y="1249" type="curve" smooth="yes"/>
      <point x="1816" y="256" type="line" smooth="yes"/>
      <point x="1816" y="174"/>
      <point x="1870" y="112"/>
      <point x="1968" y="112" type="curve" smooth="yes"/>
      <point x="2042" y="112"/>
      <point x="2128" y="152"/>
      <point x="2206" y="291" type="curve"/>
    </contour>
    <contour>
      <point x="1070" y="1069" type="curve" smooth="yes"/>
      <point x="1558" y="1069" type="line"/>
      <point x="1558" y="987" type="line"/>
      <point x="1142" y="987" type="line" smooth="yes"/>
      <point x="862" y="987"/>
      <point x="694" y="783"/>
      <point x="694" y="529" type="curve" smooth="yes"/>
      <point x="694" y="317"/>
      <point x="775" y="147"/>
      <point x="969" y="147" type="curve" smooth="yes"/>
      <point x="1161" y="147"/>
      <point x="1346" y="327"/>
      <point x="1346" y="741" type="curve"/>
      <point x="1408" y="741" type="line"/>
      <point x="1408" y="233"/>
      <point x="1181" y="-41"/>
      <point x="726" y="-41" type="curve" smooth="yes"/>
      <point x="402" y="-41"/>
      <point x="174" y="160"/>
      <point x="174" y="463" type="curve" smooth="yes"/>
      <point x="174" y="807"/>
      <point x="488" y="1069"/>
    </contour>
  </outline>
</glyph>
<glyph name="b" format="2">
  <advance width="2510"/>
  <unicode hex="0062"/>
  <outline>
    <contour>
      <point x="788" y="942" type="curve" smooth="yes"/>
      <point x="788" y="1565"/>
      <point x="1034" y="1921"/>
      <point x="1489" y="1921" type="curve" smooth="yes"/>
      <point x="1935" y="1921"/>
      <point x="2358" y="1556"/>
      <point x="2358" y="942" type="curve" smooth="yes"/>
      <point x="2358" y="328"/>
      <point x="1935" y="-41"/>
      <point x="1489" y="-41" type="curve" smooth="yes"/>
      <point x="1034" y="-41"/>
      <point x="788" y="319"/>
    </contour>
    <contour>
      <point x="850" y="942" type="curve" smooth="yes"/>
      <point x="850" y="372"/>
      <point x="1112" y="87"/>
      <point x="1372" y="87" type="curve" smooth="yes"/>
      <point x="1665" y="87"/>
      <point x="1814" y="372"/>
      <point x="1814" y="942" type="curve" smooth="yes"/>
      <point x="1814" y="1512"/>
      <point x="1665" y="1793"/>
      <point x="1372" y="1793" type="curve" smooth="yes"/>
      <point x="1112" y="1793"/>
      <point x="850" y="1512"/>
    </contour>
    <contour>
      <point x="378" y="2990" type="line"/>
      <point x="92" y="2990" type="line"/>
      <point x="92" y="3072" type="line"/>
      <point x="850" y="3072" type="line"/>
      <point x="850" y="0" type="line"/>
      <point x="92" y="0" type="line"/>
      <point x="92" y="82" type="line"/>
      <point x="378" y="82" type="line"/>
    </contour>
  </outline>
</glyph>
<glyph name="e" format="2">
  <advance width="2136"/>
  <unicode hex="0065"/>
  <outline>
    <contour>
      <point x="428" y="1028" type="line"/>
      <point x="428" y="1110" type="line"/>
      <point x="1474" y="1110" type="line"/>
      <point x="1470" y="1410"/>
      <point x="1435" y="1843"/>
      <point x="1121" y="1843" type="curve" smooth="yes"/>
      <point x="777" y="1843"/>
      <point x="686" y="1429"/>
      <point x="686" y="962" type="curve" smooth="yes"/>
      <point x="686" y="464"/>
      <point x="798" y="52"/>
      <point x="1214" y="52" type="curve" smooth="yes"/>
      <point x="1564" y="52"/>
      <point x="1815" y="287"/>
      <point x="1917" y="586" type="curve"/>
      <point x="1999" y="586" type="line"/>
      <point x="1893" y="230"/>
      <point x="1610" y="-41"/>
      <point x="1134" y="-41" type="curve" smooth="yes"/>
      <point x="576" y="-41"/>
      <point x="154" y="318"/>
      <point x="154" y="942" type="curve" smooth="yes"/>
      <point x="154" y="1566"/>
      <point x="563" y="1925"/>
      <point x="1121" y="1925" type="curve" smooth="yes"/>
      <point x="1731" y="1925"/>
      <point x="1995" y="1474"/>
      <point x="1995" y="1028" type="curve"/>
    </contour>
  </outline>
</glyph>
<glyph name="g" format="2">
  <advance width="2465"/>
  <unicode hex="0067"/>
  <outline>
    <contour>
      <point x="223" y="303" type="curve" smooth="yes"/>
      <point x="223" y="627"/>
      <point x="684" y="725"/>
      <point x="1073" y="725" type="curve"/>
      <point x="1065" y="688" type="line"/>
      <point x="889" y="688"/>
      <point x="543" y="619"/>
      <point x="543" y="454" type="curve" smooth="yes"/>
      <point x="543" y="318"/>
      <point x="725" y="314"/>
      <point x="950" y="314" type="curve" smooth="yes"/>
      <point x="1093" y="314"/>
      <point x="1157" y="318"/>
      <point x="1272" y="318" type="curve" smooth="yes"/>
      <point x="1579" y="318"/>
      <point x="1936" y="221"/>
      <point x="1936" y="-336" type="curve" smooth="yes"/>
      <point x="1936" y="-832"/>
      <point x="1526" y="-1065"/>
      <point x="1024" y="-1065" type="curve" smooth="yes"/>
      <point x="550" y="-1065"/>
      <point x="92" y="-911"/>
      <point x="92" y="-522" type="curve" smooth="yes"/>
      <point x="92" y="-149"/>
      <point x="492" y="-39"/>
      <point x="676" y="-39" type="curve" smooth="yes"/>
      <point x="716" y="-39" type="line"/>
      <point x="552" y="-129"/>
      <point x="533" y="-308"/>
      <point x="533" y="-418" type="curve" smooth="yes"/>
      <point x="533" y="-718"/>
      <point x="687" y="-969"/>
      <point x="1059" y="-969" type="curve" smooth="yes"/>
      <point x="1434" y="-969"/>
      <point x="1708" y="-814"/>
      <point x="1708" y="-448" type="curve" smooth="yes"/>
      <point x="1708" y="-227"/>
      <point x="1556" y="-88"/>
      <point x="1290" y="-88" type="curve" smooth="yes"/>
      <point x="1194" y="-88"/>
      <point x="975" y="-88"/>
      <point x="885" y="-88" type="curve" smooth="yes"/>
      <point x="516" y="-88"/>
      <point x="223" y="18"/>
    </contour>
    <contour>
      <point x="686" y="1290" type="curve" smooth="yes"/>
      <point x="686" y="966"/>
      <point x="706" y="737"/>
      <point x="979" y="737" type="curve" smooth="yes"/>
      <point x="1180" y="737"/>
      <point x="1272" y="966"/>
      <point x="1272" y="1290" type="curve" smooth="yes"/>
      <point x="1272" y="1614"/>
      <point x="1180" y="1843"/>
      <point x="979" y="1843" type="curve" smooth="yes"/>
      <point x="778" y="1843"/>
      <point x="686" y="1614"/>
    </contour>
    <contour>
      <point x="194" y="1290" type="curve" smooth="yes"/>
      <point x="194" y="1741"/>
      <point x="616" y="1925"/>
      <point x="979" y="1925" type="curve" smooth="yes"/>
      <point x="1342" y="1925"/>
      <point x="1764" y="1741"/>
      <point x="1764" y="1290" type="curve" smooth="yes"/>
      <point x="1764" y="839"/>
      <point x="1342" y="655"/>
      <point x="979" y="655" type="curve" smooth="yes"/>
      <point x="616" y="655"/>
      <point x="194" y="839"/>
    </contour>
    <contour>
      <point x="2242" y="1741" type="curve"/>
      <point x="2201" y="1807"/>
      <point x="2125" y="1823"/>
      <point x="2035" y="1823" type="curve" smooth="yes"/>
      <point x="1870" y="1823"/>
      <point x="1659" y="1728"/>
      <point x="1577" y="1372" type="curve"/>
      <point x="1508" y="1421" type="line"/>
      <point x="1590" y="1794"/>
      <point x="1851" y="1905"/>
      <point x="2035" y="1905" type="curve" smooth="yes"/>
      <point x="2275" y="1905"/>
      <point x="2394" y="1744"/>
      <point x="2394" y="1588" type="curve" smooth="yes"/>
      <point x="2394" y="1384"/>
      <point x="2272" y="1317"/>
      <point x="2160" y="1317" type="curve" smooth="yes"/>
      <point x="2048" y="1317"/>
      <point x="1930" y="1392"/>
      <point x="1930" y="1548" type="curve" smooth="yes"/>
      <point x="1930" y="1674"/>
      <point x="2016" y="1765"/>
      <point x="2146" y="1765" type="curve" smooth="yes"/>
      <point x="2196" y="1765"/>
      <point x="2226" y="1749"/>
    </contour>
  </outline>
</glyph>
<glyph name="j" format="2">
  <advance width="1257"/>
  <unicode hex="006A"/>
  <outline>
    <contour>
      <point x="366" y="2816" type="curve" smooth="yes"/>
      <point x="366" y="2982"/>
      <point x="498" y="3113"/>
      <point x="664" y="3113" type="curve" smooth="yes"/>
      <point x="830" y="3113"/>
      <point x="960" y="2982"/>
      <point x="960" y="2816" type="curve" smooth="yes"/>
      <point x="960" y="2650"/>
      <point x="830" y="2518"/>
      <point x="664" y="2518" type="curve" smooth="yes"/>
      <point x="498" y="2518"/>
      <point x="366" y="2650"/>
    </contour>
    <contour>
      <point x="932" y="1884" type="line"/>
      <point x="932" y="-49" type="line" smooth="yes"/>
      <point x="932" y="-586"/>
      <point x="718" y="-1065"/>
      <point x="166" y="-1065" type="curve" smooth="yes"/>
      <point x="-186" y="-1065"/>
      <point x="-400" y="-855"/>
      <point x="-400" y="-603" type="curve" smooth="yes"/>
      <point x="-400" y="-415"/>
      <point x="-265" y="-304"/>
      <point x="-115" y="-304" type="curve" smooth="yes"/>
      <point x="18" y="-304"/>
      <point x="166" y="-382"/>
      <point x="166" y="-566" type="curve" smooth="yes"/>
      <point x="166" y="-745"/>
      <point x="32" y="-836"/>
      <point x="-143" y="-836" type="curve" smooth="yes"/>
      <point x="-158" y="-836"/>
      <point x="-178" y="-832"/>
      <point x="-178" y="-832" type="curve"/>
      <point x="-167" y="-874"/>
      <point x="-45" y="-976"/>
      <point x="135" y="-976" type="curve" smooth="yes"/>
      <point x="535" y="-976"/>
      <point x="460" y="-438"/>
      <point x="460" y="82" type="curve" smooth="yes"/>
      <point x="460" y="1802" type="line"/>
      <point x="92" y="1802" type="line"/>
      <point x="92" y="1884" type="line"/>
    </contour>
  </outline>
</glyph>
<glyph name="m" format="2">
  <advance width="3563"/>
  <unicode hex="006D"/>
  <outline>
    <contour>
      <point x="2018" y="1307" type="curve" smooth="yes"/>
      <point x="2018" y="0" type="line"/>
      <point x="1546" y="0" type="line"/>
      <point x="1546" y="1262" type="line" smooth="yes"/>
      <point x="1546" y="1606"/>
      <point x="1499" y="1776"/>
      <point x="1307" y="1776" type="curve" smooth="yes"/>
      <point x="1003" y="1776"/>
      <point x="850" y="1335"/>
      <point x="850" y="913" type="curve"/>
      <point x="788" y="913" type="line"/>
      <point x="788" y="1331"/>
      <point x="890" y="1925"/>
      <point x="1476" y="1925" type="curve" smooth="yes"/>
      <point x="1873" y="1925"/>
      <point x="2018" y="1663"/>
    </contour>
    <contour>
      <point x="92" y="82" type="line"/>
      <point x="1100" y="82" type="line"/>
      <point x="1100" y="0" type="line"/>
      <point x="92" y="0" type="line"/>
    </contour>
    <contour>
      <point x="1296" y="82" type="line"/>
      <point x="2268" y="82" type="line"/>
      <point x="2268" y="0" type="line"/>
      <point x="1296" y="0" type="line"/>
    </contour>
    <contour>
      <point x="2462" y="82" type="line"/>
      <point x="3472" y="82" type="line"/>
      <point x="3472" y="0" type="line"/>
      <point x="2462" y="0" type="line"/>
    </contour>
    <contour>
      <point x="378" y="1802" type="line"/>
      <point x="92" y="1802" type="line"/>
      <point x="92" y="1884" type="line"/>
      <point x="850" y="1884" type="line"/>
      <point x="850" y="0" type="line"/>
      <point x="378" y="0" type="line"/>
    </contour>
    <contour>
      <point x="3184" y="1307" type="curve" smooth="yes"/>
      <point x="3184" y="0" type="line"/>
      <point x="2714" y="0" type="line"/>
      <point x="2714" y="1262" type="line" smooth="yes"/>
      <point x="2714" y="1606"/>
      <point x="2637" y="1776"/>
      <point x="2443" y="1776" type="curve" smooth="yes"/>
      <point x="2123" y="1776"/>
      <point x="2018" y="1335"/>
      <point x="2018" y="913" type="curve"/>
      <point x="1948" y="913" type="line"/>
      <point x="1948" y="1331"/>
      <point x="1992" y="1925"/>
      <point x="2614" y="1925" type="curve" smooth="yes"/>
      <point x="3011" y="1925"/>
      <point x="3184" y="1663"/>
    </contour>
  </outline>
</glyph>
<glyph name="q" format="2">
  <advance width="2510"/>
  <unicode hex="0071"/>
  <outline>
    <contour>
      <point x="1722" y="942" type="curve" smooth="yes"/>
      <point x="1722" y="319"/>
      <point x="1477" y="-41"/>
      <point x="1022" y="-41" type="curve" smooth="yes"/>
      <point x="576" y="-41"/>
      <point x="154" y="328"/>
      <point x="154" y="942" type="curve" smooth="yes"/>
      <point x="154" y="1556"/>
      <point x="576" y="1921"/>
      <point x="1022" y="1921" type="curve" smooth="yes"/>
      <point x="1477" y="1921"/>
      <point x="1722" y="1565"/>
    </contour>
    <contour>
      <point x="1660" y="942" type="curve" smooth="yes"/>
      <point x="1660" y="1532"/>
      <point x="1390" y="1793"/>
      <point x="1140" y="1793" type="curve" smooth="yes"/>
      <point x="847" y="1793"/>
      <point x="696" y="1491"/>
      <point x="696" y="942" type="curve" smooth="yes"/>
      <point x="696" y="393"/>
      <point x="847" y="97"/>
      <point x="1140" y="97" type="curve" smooth="yes"/>
      <point x="1410" y="97"/>
      <point x="1660" y="352"/>
    </contour>
    <contour>
      <point x="2419" y="-942" type="line"/>
      <point x="2419" y="-1024" type="line"/>
      <point x="1374" y="-1024" type="line"/>
      <point x="1374" y="-942" type="line"/>
    </contour>
    <contour>
      <point x="2419" y="1884" type="line"/>
      <point x="2419" y="1802" type="line"/>
      <point x="2132" y="1802" type="line"/>
      <point x="2132" y="-1024" type="line"/>
      <point x="1660" y="-1024" type="line"/>
      <point x="1660" y="1884" type="line"/>
    </contour>
  </outline>
</glyph>
<glyph name="t" format="2">
  <advance width="1412"/>
  <unicode hex="0074"/>
  <outline>
    <contour>
      <point x="50" y="1884" type="line"/>
      <point x="1260" y="1884" type="line"/>
      <point x="1260" y="1802" type="line"/>
      <point x="50" y="1802" type="line"/>
    </contour>
    <contour>
      <point x="1382" y="418" type="line"/>
      <point x="1284" y="156"/>
      <point x="1065" y="-29"/>
      <point x="774" y="-29" type="curve" smooth="yes"/>
      <point x="407" y="-29"/>
      <point x="350" y="210"/>
      <point x="350" y="466" type="curve" smooth="yes"/>
      <point x="350" y="2294" type="line"/>
      <point x="504" y="2294"/>
      <point x="709" y="2345"/>
      <point x="822" y="2417" type="curve"/>
      <point x="822" y="398" type="line" smooth="yes"/>
      <point x="822" y="193"/>
      <point x="866" y="130"/>
      <point x="977" y="130" type="curve" smooth="yes"/>
      <point x="1092" y="130"/>
      <point x="1235" y="266"/>
      <point x="1309" y="446" type="curve"/>
    </contour>
  </outline>
</glyph>
<glyph name="w" format="2">
  <advance width="3255"/>
  <unicode hex="0077"/>
  <outline>
    <contour>
      <point x="1152" y="1802" type="line"/>
      <point x="10" y="1802" type="line"/>
      <point x="10" y="1884" type="line"/>
      <point x="1152" y="1884" type="line"/>
    </contour>
    <contour>
      <point x="3246" y="1802" type="line"/>
      <point x="2369" y="1802" type="line"/>
      <point x="2369" y="1884" type="line"/>
      <point x="3246" y="1884" type="line"/>
    </contour>
    <contour>
      <point x="1183" y="490" type="line"/>
      <point x="1740" y="1925" type="line"/>
      <point x="1956" y="1925" type="line"/>
      <point x="2378" y="559" type="line"/>
      <point x="2820" y="1884" type="line"/>
      <point x="2922" y="1884" type="line"/>
      <point x="2279" y="-41" type="line"/>
      <point x="2106" y="-41" type="line"/>
      <point x="1622" y="1352" type="line"/>
      <point x="1078" y="-41" type="line"/>
      <point x="902" y="-41" type="line"/>
      <point x="276" y="1884" type="line"/>
      <point x="774" y="1884" type="line"/>
    </contour>
  </outline>
</glyph>
<glyph name="y" format="2">
  <advance width="2367"/>
  <unicode hex="0079"/>
  <outline>
    <contour>
      <point x="1202" y="1802" type="line"/>
      <point x="0" y="1802" type="line"/>
      <point x="0" y="1884" type="line"/>
      <point x="1202" y="1884" type="line"/>
    </contour>
    <contour>
      <point x="2398" y="1802" type="line"/>
      <point x="1630" y="1802" type="line"/>
      <point x="1630" y="1884" type="line"/>
      <point x="2398" y="1884" type="line"/>
    </contour>
    <contour>
      <point x="1484" y="452" type="line"/>
      <point x="1208" y="-80" type="line"/>
      <point x="242" y="1884" type="line"/>
      <point x="784" y="1884" type="line"/>
    </contour>
    <contour>
      <point x="876" y="-711" type="curve"/>
      <point x="2066" y="1884" type="line"/>
      <point x="2178" y="1884" type="line"/>
      <point x="947" y="-790" type="line" smooth="yes"/>
      <point x="866" y="-964"/>
      <point x="780" y="-1068"/>
      <point x="614" y="-1068" type="curve" smooth="yes"/>
      <point x="481" y="-1068"/>
      <point x="336" y="-981"/>
      <point x="336" y="-805" type="curve" smooth="yes"/>
      <point x="336" y="-649"/>
      <point x="450" y="-528"/>
      <point x="612" y="-528" type="curve" smooth="yes"/>
      <point x="749" y="-528"/>
      <point x="851" y="-621"/>
    </contour>
  </outline>
</glyph>
<glyph name="section" format="2">
  <advance width="1890"/>
  <unicode hex="00A7"/>
  <outline>
    <contour>
      <point x="492" y="2653" type="curve" smooth="yes"/>
      <point x="492" y="2189"/>
      <point x="1750" y="2209"/>
      <point x="1750" y="1582" type="curve" smooth="yes"/>
      <point x="1750" y="1308"/>
      <point x="1526" y="1187"/>
      <point x="1316" y="1051" type="curve"/>
      <point x="1250" y="1070" type="line"/>
      <point x="1328" y="1150"/>
      <point x="1418" y="1225"/>
      <point x="1418" y="1359" type="curve" smooth="yes"/>
      <point x="1418" y="1855"/>
      <point x="264" y="1725"/>
      <point x="264" y="2470" type="curve" smooth="yes"/>
      <point x="264" y="2896"/>
      <point x="628" y="3113"/>
      <point x="976" y="3113" type="curve" smooth="yes"/>
      <point x="1326" y="3113"/>
      <point x="1709" y="2958"/>
      <point x="1709" y="2524" type="curve" smooth="yes"/>
      <point x="1709" y="2346"/>
      <point x="1596" y="2209"/>
      <point x="1432" y="2209" type="curve" smooth="yes"/>
      <point x="1288" y="2209"/>
      <point x="1181" y="2310"/>
      <point x="1181" y="2468" type="curve" smooth="yes"/>
      <point x="1181" y="2610"/>
      <point x="1304" y="2722"/>
      <point x="1444" y="2722" type="curve" smooth="yes"/>
      <point x="1498" y="2722"/>
      <point x="1555" y="2695"/>
      <point x="1571" y="2691" type="curve"/>
      <point x="1503" y="2885"/>
      <point x="1281" y="3029"/>
      <point x="976" y="3029" type="curve" smooth="yes"/>
      <point x="729" y="3029"/>
      <point x="492" y="2878"/>
    </contour>
    <contour>
      <point x="1732" y="664" type="curve" smooth="yes"/>
      <point x="1732" y="238"/>
      <point x="1400" y="-41"/>
      <point x="908" y="-41" type="curve" smooth="yes"/>
      <point x="548" y="-41"/>
      <point x="123" y="104"/>
      <point x="123" y="558" type="curve" smooth="yes"/>
      <point x="123" y="736"/>
      <point x="236" y="872"/>
      <point x="400" y="872" type="curve" smooth="yes"/>
      <point x="544" y="872"/>
      <point x="652" y="770"/>
      <point x="652" y="612" type="curve" smooth="yes"/>
      <point x="652" y="470"/>
      <point x="530" y="364"/>
      <point x="390" y="364" type="curve" smooth="yes"/>
      <point x="336" y="364"/>
      <point x="280" y="390"/>
      <point x="264" y="394" type="curve"/>
      <point x="348" y="160"/>
      <point x="624" y="43"/>
      <point x="908" y="43" type="curve" smooth="yes"/>
      <point x="1310" y="43"/>
      <point x="1458" y="250"/>
      <point x="1458" y="434" type="curve" smooth="yes"/>
      <point x="1458" y="898"/>
      <point x="176" y="848"/>
      <point x="176" y="1444" type="curve" smooth="yes"/>
      <point x="176" y="1750"/>
      <point x="418" y="1932"/>
      <point x="568" y="2038" type="curve"/>
      <point x="645" y="2038" type="line"/>
      <point x="629" y="1989"/>
      <point x="539" y="1882"/>
      <point x="539" y="1718" type="curve" smooth="yes"/>
      <point x="539" y="1222"/>
      <point x="1732" y="1409"/>
    </contour>
  </outline>
</glyph>
<glyph name="ae" format="2">
  <advance width="3268"/>
  <unicode hex="00E6"/>
  <outline>
    <contour>
      <point x="287" y="1488" type="curve" smooth="yes"/>
      <point x="287" y="1747"/>
      <point x="642" y="1917"/>
      <point x="1036" y="1917" type="curve" smooth="yes"/>
      <point x="1568" y="1917"/>
      <point x="1694" y="1601"/>
      <point x="1694" y="1249" type="curve"/>
      <point x="1653" y="741" type="line"/>
      <point x="1653" y="233"/>
      <point x="1326" y="-41"/>
      <point x="860" y="-41" type="curve" smooth="yes"/>
      <point x="475" y="-41"/>
      <point x="143" y="99"/>
      <point x="143" y="463" type="curve" smooth="yes"/>
      <point x="143" y="807"/>
      <point x="458" y="1069"/>
      <point x="1040" y="1069" type="curve" smooth="yes"/>
      <point x="1528" y="1069" type="line"/>
      <point x="1528" y="987" type="line"/>
      <point x="1112" y="987" type="line" smooth="yes"/>
      <point x="832" y="987"/>
      <point x="664" y="783"/>
      <point x="664" y="509" type="curve" smooth="yes"/>
      <point x="664" y="235"/>
      <point x="770" y="46"/>
      <point x="964" y="46" type="curve" smooth="yes"/>
      <point x="1166" y="46"/>
      <point x="1314" y="296"/>
      <point x="1314" y="690" type="curve" smooth="yes"/>
      <point x="1314" y="1249" type="line" smooth="yes"/>
      <point x="1314" y="1523"/>
      <point x="1269" y="1821"/>
      <point x="941" y="1821" type="curve" smooth="yes"/>
      <point x="781" y="1821"/>
      <point x="668" y="1776"/>
      <point x="612" y="1732" type="curve"/>
      <point x="706" y="1717"/>
      <point x="844" y="1658"/>
      <point x="844" y="1496" type="curve" smooth="yes"/>
      <point x="844" y="1322"/>
      <point x="684" y="1233"/>
      <point x="551" y="1233" type="curve" smooth="yes"/>
      <point x="397" y="1233"/>
      <point x="287" y="1330"/>
    </contour>
    <contour>
      <point x="2642" y="1110" type="line"/>
      <point x="2638" y="1410"/>
      <point x="2602" y="1843"/>
      <point x="2288" y="1843" type="curve" smooth="yes"/>
      <point x="1944" y="1843"/>
      <point x="1854" y="1429"/>
      <point x="1854" y="962" type="curve" smooth="yes"/>
      <point x="1854" y="495"/>
      <point x="1954" y="52"/>
      <point x="2380" y="52" type="curve" smooth="yes"/>
      <point x="2730" y="52"/>
      <point x="2982" y="287"/>
      <point x="3084" y="586" type="curve"/>
      <point x="3166" y="586" type="line"/>
      <point x="3060" y="230"/>
      <point x="2776" y="-41"/>
      <point x="2300" y="-41" type="curve" smooth="yes"/>
      <point x="1774" y="-41"/>
      <point x="1424" y="318"/>
      <point x="1424" y="942" type="curve" smooth="yes"/>
      <point x="1424" y="1566"/>
      <point x="1762" y="1925"/>
      <point x="2288" y="1925" type="curve" smooth="yes"/>
      <point x="2898" y="1925"/>
      <point x="3162" y="1474"/>
      <point x="3162" y="1028" type="curve"/>
      <point x="1646" y="1028" type="line"/>
      <point x="1646" y="1110" type="line"/>
    </contour>
  </outline>
</glyph>
<glyph name="eth" format="2">
  <advance width="2395"/>
  <unicode hex="00F0"/>
  <outline>
    <contour>
      <point x="492" y="2580" type="line"/>
      <point x="2264" y="2580" type="line"/>
      <point x="2264" y="2499" type="line"/>
      <point x="492" y="2499" type="line"/>
    </contour>
    <contour>
      <point x="2192" y="1270" type="curve" smooth="yes"/>
      <point x="2192" y="410"/>
      <point x="1779" y="-41"/>
      <point x="1141" y="-41" type="curve" smooth="yes"/>
      <point x="503" y="-41"/>
      <point x="123" y="410"/>
      <point x="123" y="1024" type="curve" smooth="yes"/>
      <point x="123" y="1720"/>
      <point x="617" y="2012"/>
      <point x="1051" y="2012" type="curve" smooth="yes"/>
      <point x="1567" y="2012"/>
      <point x="1706" y="1637"/>
      <point x="1706" y="1147" type="curve"/>
      <point x="1648" y="1147" type="line"/>
      <point x="1648" y="1639"/>
      <point x="1450" y="1888"/>
      <point x="1161" y="1888" type="curve" smooth="yes"/>
      <point x="847" y="1888"/>
      <point x="665" y="1624"/>
      <point x="665" y="1024" type="curve" smooth="yes"/>
      <point x="665" y="506"/>
      <point x="743" y="41"/>
      <point x="1128" y="41" type="curve" smooth="yes"/>
      <point x="1513" y="41"/>
      <point x="1648" y="547"/>
      <point x="1648" y="1147" type="curve"/>
      <point x="1638" y="1516" type="line"/>
      <point x="1638" y="2221"/>
      <point x="1154" y="3043"/>
      <point x="430" y="3043" type="curve"/>
      <point x="430" y="3113" type="line"/>
      <point x="1414" y="3113"/>
      <point x="2192" y="2284"/>
    </contour>
  </outline>
</glyph>
<glyph name="lslash" format="2">
  <advance width="1392"/>
  <unicode hex="0142"/>
  <outline>
    <contour>
      <point x="61" y="1597" type="line"/>
      <point x="1332" y="2376" type="line"/>
      <point x="1332" y="2267" type="line"/>
      <point x="61" y="1489" type="line"/>
    </contour>
    <component base="l"/>
  </outline>
</glyph>
<glyph name="OE" format="2">
  <advance width="3978"/>
  <unicode hex="0152"/>
  <outline>
    <contour>
      <point x="1618" y="2990" type="move"/>
    </contour>
    <contour>
      <point x="758" y="1536" type="curve" smooth="yes"/>
      <point x="758" y="760"/>
      <point x="956" y="82"/>
      <point x="1618" y="82" type="curve"/>
      <point x="1556" y="0" type="line"/>
      <point x="725" y="0"/>
      <point x="164" y="623"/>
      <point x="164" y="1536" type="curve" smooth="yes"/>
      <point x="164" y="2449"/>
      <point x="725" y="3072"/>
      <point x="1556" y="3072" type="curve"/>
      <point x="1618" y="2990" type="line"/>
      <point x="956" y="2990"/>
      <point x="758" y="2312"/>
    </contour>
    <component base="E" xOffset="1495"/>
  </outline>
</glyph>
<glyph name="pi" format="2">
  <advance width="2481"/>
  <unicode hex="03C0"/>
  <outline>
    <contour>
      <point x="2338" y="422" type="line"/>
      <point x="2244" y="135"/>
      <point x="2072" y="-41"/>
      <point x="1845" y="-41" type="curve" smooth="yes"/>
      <point x="1611" y="-41"/>
      <point x="1417" y="68"/>
      <point x="1417" y="320" type="curve" smooth="yes"/>
      <point x="1417" y="1720" type="line"/>
      <point x="1888" y="1720" type="line"/>
      <point x="1888" y="404" type="line" smooth="yes"/>
      <point x="1888" y="322"/>
      <point x="1942" y="256"/>
      <point x="2040" y="256" type="curve" smooth="yes"/>
      <point x="2114" y="256"/>
      <point x="2200" y="316"/>
      <point x="2278" y="455" type="curve"/>
    </contour>
    <contour>
      <point x="467" y="-41" type="curve" smooth="yes"/>
      <point x="279" y="-41"/>
      <point x="174" y="64"/>
      <point x="174" y="197" type="curve" smooth="yes"/>
      <point x="174" y="527"/>
      <point x="725" y="387"/>
      <point x="725" y="1143" type="curve" smooth="yes"/>
      <point x="725" y="1843" type="line"/>
      <point x="954" y="1843" type="line"/>
      <point x="954" y="995" type="line" smooth="yes"/>
      <point x="954" y="348"/>
      <point x="777" y="-41"/>
    </contour>
    <contour>
      <point x="2256" y="1884" type="line"/>
      <point x="2256" y="1414" type="line"/>
      <point x="250" y="1414" type="line"/>
      <point x="250" y="1106" type="line"/>
      <point x="168" y="1106" type="line"/>
      <point x="168" y="1884" type="line"/>
    </contour>
  </outline>
</glyph>
<glyph name="uni1E9E" format="2">
  <advance width="3464"/>
  <unicode hex="1E9E"/>
  <outline>
    <contour>
      <point x="61" y="82" type="line"/>
      <point x="1331" y="82" type="line"/>
      <point x="1331" y="0" type="line"/>
      <point x="61" y="0" type="line"/>
    </contour>
    <contour>
      <point x="2316" y="1612" type="line"/>
      <point x="2161" y="1652"/>
      <point x="1993" y="1677"/>
      <point x="1804" y="1700" type="curve"/>
      <point x="2738" y="2864" type="line"/>
      <point x="2571" y="2958"/>
      <point x="2321" y="3026"/>
      <point x="2029" y="3026" type="curve" smooth="yes"/>
      <point x="1275" y="3026"/>
      <point x="963" y="2501"/>
      <point x="963" y="1765" type="curve" smooth="yes"/>
      <point x="963" y="0" type="line"/>
      <point x="430" y="0" type="line"/>
      <point x="430" y="1806" type="line" smooth="yes"/>
      <point x="430" y="2658"/>
      <point x="1127" y="3113"/>
      <point x="2029" y="3113" type="curve" smooth="yes"/>
      <point x="2656" y="3113"/>
      <point x="3044" y="2842"/>
      <point x="3178" y="2696" type="curve"/>
    </contour>
    <contour>
      <point x="1490" y="396" type="curve"/>
      <point x="1524" y="281"/>
      <point x="1746" y="54"/>
      <point x="2124" y="54" type="curve" smooth="yes"/>
      <point x="2586" y="54"/>
      <point x="2750" y="382"/>
      <point x="2750" y="798" type="curve" smooth="yes"/>
      <point x="2750" y="1132"/>
      <point x="2650" y="1622"/>
      <point x="1804" y="1622" type="curve"/>
      <point x="1804" y="1700" type="line"/>
      <point x="3027" y="1700"/>
      <point x="3302" y="1276"/>
      <point x="3302" y="804" type="curve" smooth="yes"/>
      <point x="3302" y="262"/>
      <point x="2824" y="-41"/>
      <point x="2226" y="-41" type="curve" smooth="yes"/>
      <point x="1613" y="-41"/>
      <point x="1331" y="292"/>
      <point x="1331" y="608" type="curve" smooth="yes"/>
      <point x="1331" y="807"/>
      <point x="1460" y="930"/>
      <point x="1634" y="930" type="curve" smooth="yes"/>
      <point x="1788" y="930"/>
      <point x="1906" y="824"/>
      <point x="1906" y="646" type="curve" smooth="yes"/>
      <point x="1906" y="484"/>
      <point x="1766" y="369"/>
      <point x="1616" y="369" type="curve" smooth="yes"/>
      <point x="1550" y="369"/>
      <point x="1506" y="392"/>
    </contour>
  </outline>
</glyph>
<glyph name="uniFB00" format="2">
  <advance width="2723"/>
  <unicode hex="FB00"/>
  <outline>
    <contour>
      <point x="56" y="82" type="line"/>
      <point x="2601" y="82" type="line"/>
      <point x="2601" y="0" type="line"/>
      <point x="56" y="0" type="line"/>
    </contour>
    <contour>
      <point x="56" y="1884" type="line"/>
      <point x="2683" y="1884" type="line"/>
      <point x="2683" y="1802" type="line"/>
      <point x="56" y="1802" type="line"/>
    </contour>
    <contour>
      <point x="1768" y="2670" type="curve"/>
      <point x="1755" y="2717"/>
      <point x="1604" y="2823"/>
      <point x="1406" y="2823" type="curve" smooth="yes"/>
      <point x="1108" y="2823"/>
      <point x="886" y="2527"/>
      <point x="886" y="2007" type="curve" smooth="yes"/>
      <point x="886" y="0" type="line"/>
      <point x="425" y="0" type="line"/>
      <point x="425" y="1892" type="line" smooth="yes"/>
      <point x="425" y="2450"/>
      <point x="823" y="2908"/>
      <point x="1396" y="2908" type="curve" smooth="yes"/>
      <point x="1738" y="2908"/>
      <point x="1972" y="2686"/>
      <point x="1972" y="2442" type="curve" smooth="yes"/>
      <point x="1972" y="2254"/>
      <point x="1850" y="2146"/>
      <point x="1696" y="2146" type="curve" smooth="yes"/>
      <point x="1563" y="2146"/>
      <point x="1416" y="2224"/>
      <point x="1416" y="2408" type="curve" smooth="yes"/>
      <point x="1416" y="2592"/>
      <point x="1545" y="2682"/>
      <point x="1705" y="2682" type="curve" smooth="yes"/>
      <point x="1739" y="2682"/>
      <point x="1762" y="2670"/>
    </contour>
    <contour>
      <point x="2890" y="2906" type="curve"/>
      <point x="2846" y="2953"/>
      <point x="2756" y="3030"/>
      <point x="2558" y="3030" type="curve" smooth="yes"/>
      <point x="2230" y="3030"/>
      <point x="2110" y="2732"/>
      <point x="2110" y="2212" type="curve" smooth="yes"/>
      <point x="2110" y="0" type="line"/>
      <point x="1648" y="0" type="line"/>
      <point x="1648" y="2097" type="line" smooth="yes"/>
      <point x="1648" y="2655"/>
      <point x="1985" y="3113"/>
      <point x="2548" y="3113" type="curve" smooth="yes"/>
      <point x="2890" y="3113"/>
      <point x="3082" y="2890"/>
      <point x="3082" y="2676" type="curve" smooth="yes"/>
      <point x="3082" y="2488"/>
      <point x="2962" y="2382"/>
      <point x="2808" y="2382" type="curve" smooth="yes"/>
      <point x="2675" y="2382"/>
      <point x="2527" y="2460"/>
      <point x="2527" y="2644" type="curve" smooth="yes"/>
      <point x="2527" y="2828"/>
      <point x="2656" y="2917"/>
      <point x="2816" y="2917" type="curve" smooth="yes"/>
      <point x="2850" y="2917"/>
      <point x="2884" y="2906"/>
    </contour>
  </outline>
</glyph>
<glyph name="R.alt" format="2">
  <advance width="2871"/>
  <outline>
    <contour>
      <point x="1470" y="1565" type="curve" smooth="yes"/>
      <point x="814" y="1565" type="line"/>
      <point x="814" y="1618" type="line"/>
      <point x="1418" y="1618" type="line" smooth="yes"/>
      <point x="1811" y="1618"/>
      <point x="2022" y="1848"/>
      <point x="2022" y="2314" type="curve" smooth="yes"/>
      <point x="2022" y="2780"/>
      <point x="1811" y="2990"/>
      <point x="1418" y="2990" type="curve" smooth="yes"/>
      <point x="77" y="2990" type="line"/>
      <point x="77" y="3072" type="line"/>
      <point x="1470" y="3072" type="line" smooth="yes"/>
      <point x="2119" y="3072"/>
      <point x="2555" y="2846"/>
      <point x="2555" y="2314" type="curve" smooth="yes"/>
      <point x="2555" y="1782"/>
      <point x="2160" y="1565"/>
    </contour>
    <contour>
      <point x="77" y="82" type="line"/>
      <point x="1449" y="82" type="line"/>
      <point x="1449" y="0" type="line"/>
      <point x="77" y="0" type="line"/>
    </contour>
    <contour>
      <point x="506" y="3072" type="line"/>
      <point x="1019" y="3072" type="line"/>
      <point x="1019" y="0" type="line"/>
      <point x="506" y="0" type="line"/>
    </contour>
    <contour>
      <point x="2832" y="0" type="line"/>
      <point x="2766" y="0"/>
      <point x="2609" y="0"/>
      <point x="2462" y="0" type="curve" smooth="yes"/>
      <point x="1446" y="0"/>
      <point x="2386" y="1536"/>
      <point x="1398" y="1536" type="curve" smooth="yes"/>
      <point x="814" y="1536" type="line"/>
      <point x="814" y="1577" type="line"/>
      <point x="1602" y="1577" type="line" smooth="yes"/>
      <point x="2996" y="1577"/>
      <point x="2194" y="82"/>
      <point x="2688" y="82" type="curve" smooth="yes"/>
      <point x="2774" y="82"/>
      <point x="2775" y="82"/>
      <point x="2832" y="82" type="curve"/>
    </contour>
  </outline>
</glyph>
<glyph name="fj.lig" format="2">
  <advance width="2367"/>
  <outline>
    <contour>
      <point x="56" y="82" type="line"/>
      <point x="1270" y="82" type="line"/>
      <point x="1270" y="0" type="line"/>
      <point x="56" y="0" type="line"/>
    </contour>
    <contour>
      <point x="2038" y="-49" type="line" smooth="yes"/>
      <point x="2038" y="-586"/>
      <point x="1824" y="-1065"/>
      <point x="1272" y="-1065" type="curve" smooth="yes"/>
      <point x="920" y="-1065"/>
      <point x="706" y="-857"/>
      <point x="706" y="-603" type="curve" smooth="yes"/>
      <point x="706" y="-415"/>
      <point x="838" y="-304"/>
      <point x="992" y="-304" type="curve" smooth="yes"/>
      <point x="1125" y="-304"/>
      <point x="1272" y="-382"/>
      <point x="1272" y="-566" type="curve" smooth="yes"/>
      <point x="1272" y="-750"/>
      <point x="1142" y="-836"/>
      <point x="962" y="-836" type="curve" smooth="yes"/>
      <point x="950" y="-836"/>
      <point x="934" y="-832"/>
      <point x="928" y="-832" type="curve"/>
      <point x="939" y="-874"/>
      <point x="1062" y="-976"/>
      <point x="1242" y="-976" type="curve" smooth="yes"/>
      <point x="1642" y="-976"/>
      <point x="1567" y="-438"/>
      <point x="1567" y="82" type="curve" smooth="yes"/>
      <point x="1567" y="1802" type="line"/>
      <point x="56" y="1802" type="line"/>
      <point x="56" y="1884" type="line"/>
      <point x="2038" y="1884" type="line"/>
    </contour>
    <contour>
      <point x="1852" y="2874" type="curve"/>
      <point x="1836" y="2921"/>
      <point x="1706" y="3030"/>
      <point x="1426" y="3030" type="curve" smooth="yes"/>
      <point x="1006" y="3030"/>
      <point x="886" y="2732"/>
      <point x="886" y="2212" type="curve" smooth="yes"/>
      <point x="886" y="0" type="line"/>
      <point x="425" y="0" type="line"/>
      <point x="425" y="2097" type="line" smooth="yes"/>
      <point x="425" y="2665"/>
      <point x="761" y="3113"/>
      <point x="1426" y="3113" type="curve" smooth="yes"/>
      <point x="1850" y="3113"/>
      <point x="2054" y="2890"/>
      <point x="2054" y="2646" type="curve" smooth="yes"/>
      <point x="2054" y="2458"/>
      <point x="1932" y="2352"/>
      <point x="1778" y="2352" type="curve" smooth="yes"/>
      <point x="1645" y="2352"/>
      <point x="1498" y="2430"/>
      <point x="1498" y="2614" type="curve" smooth="yes"/>
      <point x="1498" y="2798"/>
      <point x="1627" y="2884"/>
      <point x="1787" y="2884" type="curve" smooth="yes"/>
      <point x="1821" y="2884"/>
      <point x="1846" y="2874"/>
    </contour>
  </outline>
</glyph>
